<svg width="39" height="39" viewBox="0 0 39 39" fill="none" xmlns="http://www.w3.org/2000/svg">
<path d="M4.875 17.875H11.375M34.125 17.875H17.875M16.25 22.75H22.75M29.25 14.625L24.375 4.875M9.75 14.625L14.625 4.875" stroke="black" stroke-width="1.5" stroke-linecap="round" stroke-linejoin="round"/>
<path d="M32.526 26.4176C31.7346 30.1112 31.3397 31.9573 29.9991 33.0411C28.6585 34.125 26.7702 34.125 22.9937 34.125H16.0062C12.2297 34.125 10.3415 34.125 9.00248 33.0411C7.66023 31.9573 7.26373 30.1112 6.47398 26.4176L5.77686 23.1676C4.61011 17.719 4.02511 14.9939 5.48923 13.1853C6.95173 11.375 9.73861 11.375 15.3107 11.375H23.6892C29.263 11.375 32.0466 11.375 33.5107 13.1853C34.5995 14.534 34.5556 16.3897 33.9787 19.5" stroke="black" stroke-width="1.5" stroke-linecap="round"/>
</svg>
